<svg xmlns="http://www.w3.org/2000/svg" width="1200" height="800" viewBox="0 0 1200 800" role="img" aria-label="Stylized night landscape">
  <defs>
    <linearGradient id="sky" x1="0" y1="0" x2="0" y2="1">
      <stop offset="0" stop-color="#0b1026"/>
      <stop offset="0.55" stop-color="#1b2350"/>
      <stop offset="1" stop-color="#3a2f63"/>
    </linearGradient>
    <linearGradient id="ridgeA" x1="0" y1="0" x2="0" y2="1">
      <stop offset="0" stop-color="#2a3570"/>
      <stop offset="1" stop-color="#141a3a"/>
    </linearGradient>
    <linearGradient id="ridgeB" x1="0" y1="0" x2="0" y2="1">
      <stop offset="0" stop-color="#4a3f7d"/>
      <stop offset="1" stop-color="#241e46"/>
    </linearGradient>
    <radialGradient id="moon" cx="0.5" cy="0.5" r="0.5">
      <stop offset="0" stop-color="#fef6e0"/>
      <stop offset="0.7" stop-color="#f4e6b8"/>
      <stop offset="1" stop-color="#f4e6b8" stop-opacity="0"/>
    </radialGradient>
  </defs>
  <rect width="1200" height="800" fill="url(#sky)"/>
  <circle cx="920" cy="200" r="70" fill="url(#moon)"/>
  <circle cx="920" cy="200" r="46" fill="#fff8e7"/>
  <g fill="#ffffff">
    <circle cx="140" cy="120" r="2.2"/><circle cx="300" cy="80" r="1.6"/><circle cx="470" cy="150" r="2"/>
    <circle cx="640" cy="90" r="1.4"/><circle cx="210" cy="260" r="1.8"/><circle cx="80" cy="330" r="1.5"/>
    <circle cx="1080" cy="110" r="2"/><circle cx="1130" cy="300" r="1.6"/><circle cx="560" cy="240" r="1.5"/>
    <circle cx="760" cy="60" r="1.7"/><circle cx="1010" cy="360" r="1.4"/><circle cx="390" cy="300" r="1.5"/>
  </g>
  <path d="M0 560 L180 430 L340 540 L520 400 L700 540 L860 470 L1050 560 L1200 500 L1200 800 L0 800 Z" fill="url(#ridgeB)"/>
  <path d="M0 660 L220 560 L430 650 L620 540 L820 650 L1010 590 L1200 660 L1200 800 L0 800 Z" fill="url(#ridgeA)"/>
  <path d="M480 420 L520 400 L560 424 L540 432 L560 448 L500 448 L520 432 Z" fill="#eef1ff" opacity="0.85"/>
</svg>
